<svg width="448" height="448" viewBox="0 0 448 448" fill="none" xmlns="http://www.w3.org/2000/svg">
<rect width="447.605" height="447.605" transform="translate(0.870117)" fill="white"/>
<path fill-rule="evenodd" clip-rule="evenodd" d="M198.576 217.909C198.885 216.678 199.231 215.455 199.614 214.241C202.563 204.896 207.617 196.352 214.388 189.267C221.158 182.183 229.465 176.747 238.667 173.379C247.869 170.011 257.722 168.8 267.466 169.839C277.21 170.878 286.586 174.141 294.871 179.374C303.156 184.608 310.129 191.673 315.253 200.026C319.458 206.882 322.327 214.456 323.723 222.346C324.229 225.205 322.083 227.773 319.192 228.043L280.571 231.648C277.68 231.918 275.197 229.714 273.933 227.1C273.72 226.658 273.484 226.226 273.227 225.806C272.048 223.885 270.445 222.26 268.539 221.057C266.634 219.853 264.478 219.103 262.237 218.864C259.996 218.625 257.73 218.904 255.614 219.678C253.497 220.453 251.587 221.703 250.03 223.332C248.473 224.961 247.311 226.926 246.633 229.075C245.954 231.225 245.779 233.501 246.119 235.729C246.193 236.216 246.292 236.697 246.414 237.172C246.462 237.358 246.504 237.545 246.541 237.733C253.255 235.765 260.304 234.893 267.418 235.211C283.762 235.943 299.205 242.903 310.578 254.663C320.729 265.158 326.95 278.766 328.303 293.2C328.573 296.09 326.224 298.475 323.321 298.508L286.952 298.921C284.049 298.954 281.745 296.573 280.837 293.815C280.035 291.379 278.69 289.133 276.876 287.258C273.831 284.109 269.696 282.246 265.321 282.05C260.945 281.854 256.66 283.341 253.346 286.204C251.372 287.91 249.832 290.027 248.815 292.381C248.538 293.023 248.182 293.636 247.761 294.193C247.474 298.534 243.862 301.966 239.447 301.966H206.562C201.96 301.966 198.229 298.236 198.229 293.634V272.68C184.818 275.507 170.834 273.957 158.345 268.231C145.286 262.244 134.619 252.039 128.061 239.257C121.503 226.475 119.434 211.858 122.187 197.758C124.94 183.658 132.355 170.893 143.24 161.517C154.125 152.141 167.847 146.697 182.199 146.063C194.795 145.505 207.235 148.68 217.979 155.13C220.468 156.624 220.998 159.929 219.305 162.288L197.235 193.026C195.542 195.385 192.253 195.82 189.469 194.997C187.816 194.509 186.082 194.293 184.336 194.37C180.822 194.526 177.464 195.858 174.799 198.153C172.135 200.449 170.32 203.573 169.646 207.025C168.972 210.476 169.478 214.054 171.083 217.183C172.689 220.312 175.3 222.81 178.497 224.275C181.693 225.741 185.29 226.089 188.708 225.263C192.127 224.437 195.168 222.486 197.343 219.722C197.798 219.145 198.21 218.538 198.576 217.909Z" fill="#101325"/>
</svg>
